<?xml version="1.0" encoding="utf-8"?>
<!-- Generator: Adobe Illustrator 14.0.0, SVG Export Plug-In . SVG Version: 6.00 Build 43363)  -->
<!DOCTYPE svg PUBLIC "-//W3C//DTD SVG 1.1//EN" "http://www.w3.org/Graphics/SVG/1.1/DTD/svg11.dtd">
<svg version="1.1" id="Emblem" xmlns="http://www.w3.org/2000/svg" xmlns:xlink="http://www.w3.org/1999/xlink" x="0px" y="0px"
	 width="633.034px" height="381.051px" viewBox="0 0 633.034 381.051" enable-background="new 0 0 633.034 381.051"
	 xml:space="preserve">
<path fill="#005DAA" d="M602.253,283.867c0,13.262-10.746,24.012-24.006,24.012H24.092c-13.259,0-24.007-10.75-24.007-24.012V97.276
	c0-13.262,10.748-24.012,24.007-24.012h554.155c13.26,0,24.006,10.75,24.006,24.012V283.867z"/>
<g>
	<path fill="#FFFFFF" d="M12.907,139.583c-1.074,4.216,2.427,4.217,2.427,4.217c-3.501-0.001,57.517,0,57.517,0
		c4.751-0.001,11.753,6.615,8.322,16.342L30.682,290.627h80.528l49.02-130.921c6.271-15.906,6.152-16.582,30.827-16.627h226.337
		c7.748,0.003,8.484-0.193,11.816,5.25l48.73,80.902c1.646,4.278,0.645,6.613-4.689,6.613h-47.954l-20.324,54.783l179.638-0.034
		c3.955-0.08,6.008-3.725,4.562-7.997l-98.771-172.423c-4.809-7.061-12.146-11.064-22.812-10.657l-7.211,0.01L32.965,99.502h-6.252
		L12.907,139.583z"/>
	<path fill="#FFFFFF" d="M340.3,290.627c0,0,6.7,0,14.254-15.764c5.221-10.896,18.541-48.021,21.34-59.029
		c5.166-20.327-22.118-32.583-22.118-32.583c-2.262-1.134-2.934-2.182-2.525-3.476l11.319-29.334h49.332
		c3.615,0.397,4.426,0.799,7.555,4.216l14.748,22.646c1.014,1.67,0.811,2.607,0.025,4.647l-40.326,108.677H340.3z"/>
	<path fill="#FFFFFF" d="M307.198,290.604c0,0,9.971-0.171,11.592-0.302c8.6-0.691,13.664-2.388,20.273-10.354
		c7.186-8.659,24.764-54.644,25.539-65.323c0.814-11.199-5.44-17.623-14.006-22.513c-7.597-4.337-63.848-26.919-65.768-27.764
		s-3.141-2.637-3.641-5.512s0.722-7.632,0.722-7.632l-88.698,0.009c0,0-4.611,15.534-5.211,24.812
		c-0.467,7.227,3.827,10.056,6.451,11.919c3.439,2.443,86.344,37.998,89.127,39.686c3.812,2.312,7.126,10.004-4.001,10.005
		l-137.434,0.001l-19.844,52.968H307.198z"/>
</g>
<path fill="#EE3524" d="M602.256,48.272c0,9.345-7.574,16.92-16.916,16.92H17c-9.342,0-16.917-7.575-16.917-16.92V16.92
	C0.083,7.576,7.657,0,17,0h568.34c9.342,0,16.916,7.576,16.916,16.92V48.272z"/>
<path fill="#EE3524" d="M602.255,364.224c0,9.346-7.572,16.921-16.914,16.921H17c-9.343,0-16.917-7.575-16.917-16.921V332.87
	c0-9.346,7.574-16.921,16.917-16.921h568.341c9.342,0,16.914,7.575,16.914,16.921V364.224z"/>
<g>
	<path fill="#FFFFFF" d="M24.894,341.324v19.022h-4.44v-19.022h-4.44v-3.979h13.353v3.979H24.894z"/>
	<path fill="#FFFFFF" d="M31.57,360.347v-23.001h12.899v3.979H36.01v5.626h8.103v3.979H36.01v5.439h8.459v3.979H31.57z"/>
	<path fill="#FFFFFF" d="M65.729,343.904c-1.686-1.896-3.76-3.046-6.417-3.046c-4.408,0-7.811,3.885-7.811,7.957
		c0,4.134,3.533,8.019,7.973,8.019c2.593,0,4.343-1.118,6.028-2.891h5.153c-1.848,4.165-6.417,6.869-11.084,6.869
		c-6.871,0-12.51-5.501-12.51-12.06c0-6.496,5.639-11.873,12.413-11.873c4.894,0,9.334,2.704,11.311,7.024H65.729z"/>
	<path fill="#FFFFFF" d="M86.08,360.347v-9.667h-8.588v9.667h-4.44v-23.001h4.44v9.355h8.588v-9.355h4.44v23.001H86.08z"/>
	<path fill="#FFFFFF" d="M108.441,360.347l-10.015-16.723h-0.064v16.723h-4.44v-23.001h5.056l9.917,16.723h0.064v-16.723h4.44
		v23.001H108.441z"/>
	<path fill="#FFFFFF" d="M128.761,360.812c-6.871,0-12.542-5.283-12.542-11.904c0-6.683,5.607-12.028,12.542-12.028
		c6.936,0,12.543,5.346,12.543,12.028C141.304,355.529,135.632,360.812,128.761,360.812z M128.761,340.858
		c-4.602,0-8.102,3.698-8.102,8.019c0,4.29,3.565,7.957,8.102,7.957c4.538,0,8.103-3.667,8.103-7.957
		C136.863,344.557,133.363,340.858,128.761,340.858z"/>
	<path fill="#FFFFFF" d="M144.219,360.347v-23.001h4.44v19.022h7.325v3.979H144.219z"/>
	<path fill="#FFFFFF" d="M167.683,360.812c-6.871,0-12.542-5.283-12.542-11.904c0-6.683,5.607-12.028,12.542-12.028
		c6.936,0,12.543,5.346,12.543,12.028C180.226,355.529,174.554,360.812,167.683,360.812z M167.683,340.858
		c-4.602,0-8.102,3.698-8.102,8.019c0,4.29,3.565,7.957,8.102,7.957c4.538,0,8.103-3.667,8.103-7.957
		C175.785,344.557,172.285,340.858,167.683,340.858z"/>
	<path fill="#FFFFFF" d="M195.229,360.812c-6.968,0-12.899-5.159-12.899-11.966c0-6.683,5.898-11.967,12.77-11.967
		c4.732,0,9.982,2.797,11.635,7.211h-5.315c-1.394-2.052-3.889-3.232-6.417-3.232c-4.635,0-8.232,3.605-8.232,8.019
		c0,1.058,0.259,2.146,0.68,3.108c1.361,3.108,4.278,4.849,7.778,4.849c3.047,0,5.737-1.616,7.098-4.227H192.28v-3.979h15.654v0.497
		C207.934,355.685,201.938,360.812,195.229,360.812z"/>
	<path fill="#FFFFFF" d="M218.499,351.861v8.485h-4.44v-8.485l-7.875-14.516h4.861l5.218,10.568l5.25-10.568h4.894L218.499,351.861z
		"/>
	<path fill="#FFFFFF" d="M245.234,360.812c-4.246,0-7.616-2.983-7.811-7.056h4.667c0.162,1.741,1.264,3.077,3.176,3.077
		c1.718,0,3.306-1.149,3.306-2.891c0-2.61-2.463-3.107-4.569-3.885c-0.746-0.28-1.458-0.528-2.172-0.87
		c-2.431-1.213-3.532-3.108-3.532-5.751c0-3.792,3.111-6.558,7.033-6.558c3.889,0,6.903,2.828,7.098,6.558h-4.537
		c-0.13-1.554-1.005-2.579-2.69-2.579c-1.394,0-2.463,0.963-2.463,2.331c0,2.207,2.204,2.642,3.986,3.201
		c3.63,1.15,6.288,3.046,6.288,7.087C253.013,357.829,249.707,360.812,245.234,360.812z"/>
	<path fill="#FFFFFF" d="M262.475,341.324v19.022h-4.44v-19.022h-4.44v-3.979h13.353v3.979H262.475z"/>
	<path fill="#FFFFFF" d="M284.74,357.394c-1.621,2.207-4.408,3.419-7.163,3.419c-2.69,0-5.509-1.181-7.13-3.294
		c-1.199-1.523-1.491-3.699-1.491-5.564v-14.608h4.44v14.608c0,2.674,0.907,4.88,4.148,4.88s4.148-2.206,4.148-4.88v-14.608h4.44
		v14.608C286.133,353.819,285.874,355.809,284.74,357.394z"/>
	<path fill="#FFFFFF" d="M303.634,358.854c-2.301,1.213-5.38,1.492-7.973,1.492h-5.542v-23.001h5.445
		c3.338,0,7.227,0.467,9.852,2.673c2.561,2.176,3.954,5.626,3.954,8.89C309.37,352.825,307.296,356.928,303.634,358.854z
		 M302.37,343.252c-2.236-1.896-4.991-1.928-7.811-1.928v15.044h0.94c2.139,0,3.922-0.093,5.834-1.119
		c2.333-1.243,3.597-3.823,3.597-6.341C304.93,346.826,304.022,344.65,302.37,343.252z"/>
	<path fill="#FFFFFF" d="M312.253,360.347v-23.001h12.899v3.979h-8.459v5.626h8.103v3.979h-8.103v5.439h8.459v3.979H312.253z"/>
	<path fill="#FFFFFF" d="M343.431,360.347l-10.015-16.723h-0.064v16.723h-4.44v-23.001h5.056l9.918,16.723h0.064v-16.723h4.44
		v23.001H343.431z"/>
	<path fill="#FFFFFF" d="M359.861,341.324v19.022h-4.44v-19.022h-4.44v-3.979h13.353v3.979H359.861z"/>
	<path fill="#FFFFFF" d="M393.922,360.347l-2.561-5.937h-8.589l-2.56,5.937h-4.895l9.982-23.001h3.468l10.047,23.001H393.922z
		 M387.051,343.345h-0.064l-2.723,7.056h5.51L387.051,343.345z"/>
	<path fill="#FFFFFF" d="M406.139,360.812c-4.245,0-7.616-2.983-7.811-7.056h4.667c0.162,1.741,1.265,3.077,3.177,3.077
		c1.718,0,3.306-1.149,3.306-2.891c0-2.61-2.464-3.107-4.57-3.885c-0.745-0.28-1.458-0.528-2.171-0.87
		c-2.431-1.213-3.533-3.108-3.533-5.751c0-3.792,3.111-6.558,7.033-6.558c3.889,0,6.903,2.828,7.098,6.558h-4.537
		c-0.13-1.554-1.005-2.579-2.69-2.579c-1.394,0-2.463,0.963-2.463,2.331c0,2.207,2.204,2.642,3.986,3.201
		c3.63,1.15,6.287,3.046,6.287,7.087C413.917,357.829,410.611,360.812,406.139,360.812z"/>
	<path fill="#FFFFFF" d="M423.152,360.812c-4.245,0-7.616-2.983-7.811-7.056h4.667c0.162,1.741,1.265,3.077,3.177,3.077
		c1.718,0,3.306-1.149,3.306-2.891c0-2.61-2.464-3.107-4.57-3.885c-0.745-0.28-1.458-0.528-2.171-0.87
		c-2.431-1.213-3.533-3.108-3.533-5.751c0-3.792,3.111-6.558,7.033-6.558c3.889,0,6.903,2.828,7.098,6.558h-4.537
		c-0.13-1.554-1.005-2.579-2.69-2.579c-1.394,0-2.463,0.963-2.463,2.331c0,2.207,2.204,2.642,3.986,3.201
		c3.63,1.15,6.287,3.046,6.287,7.087C430.931,357.829,427.625,360.812,423.152,360.812z"/>
	<path fill="#FFFFFF" d="M444.932,360.812c-6.871,0-12.543-5.283-12.543-11.904c0-6.683,5.607-12.028,12.543-12.028
		s12.542,5.346,12.542,12.028C457.474,355.529,451.803,360.812,444.932,360.812z M444.932,340.858c-4.603,0-8.103,3.698-8.103,8.019
		c0,4.29,3.565,7.957,8.103,7.957s8.103-3.667,8.103-7.957C453.034,344.557,449.533,340.858,444.932,340.858z"/>
	<path fill="#FFFFFF" d="M477.825,343.904c-1.685-1.896-3.759-3.046-6.417-3.046c-4.407,0-7.811,3.885-7.811,7.957
		c0,4.134,3.533,8.019,7.973,8.019c2.593,0,4.343-1.118,6.028-2.891h5.153c-1.848,4.165-6.417,6.869-11.084,6.869
		c-6.871,0-12.511-5.501-12.511-12.06c0-6.496,5.64-11.873,12.413-11.873c4.895,0,9.334,2.704,11.312,7.024H477.825z"/>
	<path fill="#FFFFFF" d="M485.182,360.347v-23.001h4.439v23.001H485.182z"/>
	<path fill="#FFFFFF" d="M510.266,360.347l-2.561-5.937h-8.589l-2.56,5.937h-4.895l9.982-23.001h3.468l10.047,23.001H510.266z
		 M503.395,343.345h-0.064l-2.723,7.056h5.51L503.395,343.345z"/>
	<path fill="#FFFFFF" d="M521.705,341.324v19.022h-4.44v-19.022h-4.44v-3.979h13.353v3.979H521.705z"/>
	<path fill="#FFFFFF" d="M528.736,360.347v-23.001h4.44v23.001H528.736z"/>
	<path fill="#FFFFFF" d="M548.604,360.812c-6.871,0-12.543-5.283-12.543-11.904c0-6.683,5.607-12.028,12.543-12.028
		s12.542,5.346,12.542,12.028C561.146,355.529,555.475,360.812,548.604,360.812z M548.604,340.858c-4.603,0-8.103,3.698-8.103,8.019
		c0,4.29,3.564,7.957,8.103,7.957c4.537,0,8.103-3.667,8.103-7.957C556.707,344.557,553.206,340.858,548.604,340.858z"/>
	<path fill="#FFFFFF" d="M578.517,360.347l-10.015-16.723h-0.064v16.723h-4.44v-23.001h5.056l9.918,16.723h0.064v-16.723h4.44
		v23.001H578.517z"/>
</g>
<path fill="#EE3524" d="M622.171,344.348c-5.928,0-10.75,4.822-10.75,10.75s4.822,10.75,10.75,10.75s10.75-4.822,10.75-10.75
	S628.099,344.348,622.171,344.348z M627.65,362.827l-3.99-5.578c0.834-0.003,1.562-0.174,2.161-0.506
	c0.599-0.33,1.09-0.75,1.46-1.249c0.365-0.491,0.629-1.027,0.785-1.592c0.152-0.556,0.223-1.087,0.21-1.572
	c0-0.447-0.062-0.894-0.181-1.324c-0.117-0.421-0.275-0.823-0.472-1.194c-0.2-0.378-0.446-0.714-0.73-0.999
	c-0.288-0.287-0.596-0.514-0.9-0.666c-0.202-0.114-0.418-0.215-0.642-0.299c-0.232-0.086-0.506-0.153-0.837-0.205
	c-0.312-0.047-0.678-0.084-1.097-0.111c-0.416-0.026-0.913-0.041-1.489-0.041h-3.67v14.164h1.228v-13.016h2.442
	c0.434,0,0.825,0.004,1.174,0.011c0.339,0.006,0.654,0.028,0.937,0.067c0.28,0.037,0.539,0.093,0.77,0.166
	c0.224,0.071,0.438,0.173,0.637,0.302c0.517,0.337,0.916,0.802,1.187,1.38c0.276,0.592,0.417,1.189,0.417,1.775
	c0,0.544-0.088,1.06-0.26,1.533c-0.17,0.468-0.475,0.937-0.877,1.367c-0.221,0.184-0.444,0.335-0.667,0.448
	c-0.222,0.115-0.453,0.204-0.687,0.264c-0.242,0.062-0.5,0.103-0.767,0.12c-0.285,0.02-0.595,0.029-0.931,0.029h-1.526l5.256,7.382
	c-1.321,0.699-2.824,1.1-4.42,1.1c-5.23,0-9.485-4.255-9.485-9.485s4.255-9.485,9.485-9.485s9.485,4.255,9.485,9.485
	C631.656,358.286,630.069,361.106,627.65,362.827z"/>
</svg>
